<?xml version="1.0" encoding="UTF-8"?>
<!DOCTYPE svg PUBLIC "-//W3C//DTD SVG 1.1//EN" "http://www.w3.org/Graphics/SVG/1.1/DTD/svg11.dtd">
<svg xmlns="http://www.w3.org/2000/svg" version="1.1" width="4096px" height="1714px" style="shape-rendering:geometricPrecision; text-rendering:geometricPrecision; image-rendering:optimizeQuality; fill-rule:evenodd; clip-rule:evenodd" xmlns:xlink="http://www.w3.org/1999/xlink">
<g><path style="opacity:1" fill="#fefefe" d="M -0.5,-0.5 C 1364.83,-0.5 2730.17,-0.5 4095.5,-0.5C 4095.5,570.833 4095.5,1142.17 4095.5,1713.5C 2730.17,1713.5 1364.83,1713.5 -0.5,1713.5C -0.5,1142.17 -0.5,570.833 -0.5,-0.5 Z"/></g>
<g><path style="opacity:1" fill="#050505" d="M 699.5,446.5 C 695.283,448.036 690.95,449.036 686.5,449.5C 670.484,450.458 654.651,452.125 639,454.5C 636.804,452.853 634.971,453.187 633.5,455.5C 631.421,452.894 629.421,452.894 627.5,455.5C 621.825,455.613 616.491,455.946 611.5,456.5C 610.833,456.5 610.167,456.5 609.5,456.5C 606.059,457.097 602.725,457.763 599.5,458.5C 597.052,459.473 594.385,459.806 591.5,459.5C 589.08,459.708 586.747,459.374 584.5,458.5C 582.664,459.028 580.997,459.694 579.5,460.5C 578.609,461.11 577.609,461.443 576.5,461.5C 570.261,461.276 564.261,461.943 558.5,463.5C 554.6,464.43 550.6,464.763 546.5,464.5C 542.575,464.43 538.909,465.097 535.5,466.5C 500.522,470.5 465.522,474.5 430.5,478.5C 425.547,478.123 420.881,478.789 416.5,480.5C 409.135,480.836 401.801,481.503 394.5,482.5C 382.726,481.946 371.059,480.612 359.5,478.5C 357.626,477.715 355.626,477.048 353.5,476.5C 351.822,475.253 350.489,473.586 349.5,471.5C 351.5,470.167 353.167,468.5 354.5,466.5C 429.425,456.443 504.425,448.11 579.5,441.5C 587.505,441.143 595.505,440.643 603.5,440C 604.416,439.722 605.082,439.222 605.5,438.5C 630.608,435.717 655.775,433.384 681,431.5C 689.625,432.729 696.459,436.896 701.5,444C 701.361,445.301 700.695,446.134 699.5,446.5 Z"/></g>
<g><path style="opacity:1" fill="#404040" d="M 605.5,438.5 C 605.082,439.222 604.416,439.722 603.5,440C 595.505,440.643 587.505,441.143 579.5,441.5C 587.951,439.877 596.618,438.877 605.5,438.5 Z"/></g>
<g><path style="opacity:1" fill="#969696" d="M 699.5,446.5 C 699.918,447.222 700.584,447.722 701.5,448C 701.167,448.333 700.833,448.667 700.5,449C 695.845,449.499 691.179,449.666 686.5,449.5C 690.95,449.036 695.283,448.036 699.5,446.5 Z"/></g>
<g><path style="opacity:1" fill="#666666" d="M 627.5,455.5 C 623.516,456.413 619.349,457.079 615,457.5C 613.615,457.486 612.449,457.152 611.5,456.5C 616.491,455.946 621.825,455.613 627.5,455.5 Z"/></g>
<g><path style="opacity:1" fill="#919191" d="M 609.5,456.5 C 606.663,458.402 603.329,459.069 599.5,458.5C 602.725,457.763 606.059,457.097 609.5,456.5 Z"/></g>
<g><path style="opacity:1" fill="#494949" d="M 591.5,459.5 C 587.727,461.516 583.727,461.849 579.5,460.5C 580.997,459.694 582.664,459.028 584.5,458.5C 586.747,459.374 589.08,459.708 591.5,459.5 Z"/></g>
<g><path style="opacity:1" fill="#a1a1a1" d="M 576.5,461.5 C 570.712,462.81 564.712,463.477 558.5,463.5C 564.261,461.943 570.261,461.276 576.5,461.5 Z"/></g>
<g><path style="opacity:1" fill="#767676" d="M 546.5,464.5 C 543.091,465.903 539.425,466.57 535.5,466.5C 538.909,465.097 542.575,464.43 546.5,464.5 Z"/></g>
<g><path style="opacity:1" fill="#808080" d="M 353.5,476.5 C 355.626,477.048 357.626,477.715 359.5,478.5C 360.11,479.391 360.443,480.391 360.5,481.5C 359.078,481.25 358.078,480.417 357.5,479C 356.207,478.51 354.873,478.343 353.5,478.5C 353.5,477.833 353.5,477.167 353.5,476.5 Z"/></g>
<g><path style="opacity:1" fill="#040404" d="M 353.5,478.5 C 354.873,478.343 356.207,478.51 357.5,479C 358.078,480.417 359.078,481.25 360.5,481.5C 363.605,484.275 365.938,487.608 367.5,491.5C 367.5,492.5 367.5,493.5 367.5,494.5C 365.62,494.229 364.287,494.896 363.5,496.5C 361.76,499.638 359.76,502.638 357.5,505.5C 354.994,508.284 352.661,511.284 350.5,514.5C 345.199,524.452 340.199,534.452 335.5,544.5C 332.797,549.594 330.297,555.261 328,561.5C 317.504,579.82 307.504,598.487 298,617.5C 297,618.5 296,619.5 295,620.5C 294.771,623.458 293.604,625.958 291.5,628C 278.651,655.534 264.984,683.034 250.5,710.5C 251.333,710.833 252.167,711.167 253,711.5C 270.923,706.58 289.09,702.413 307.5,699C 358.223,689.861 408.723,681.027 459,672.5C 459.873,672.735 460.707,673.069 461.5,673.5C 465.395,671.517 469.395,670.851 473.5,671.5C 508.697,664.088 544.197,659.755 580,658.5C 585.913,658.404 591.746,658.904 597.5,660C 598.966,660.635 600.3,661.469 601.5,662.5C 604.842,665.847 607.842,669.513 610.5,673.5C 610.219,675.778 608.885,676.945 606.5,677C 602.179,677.499 597.846,677.666 593.5,677.5C 584.283,677.236 575.283,677.903 566.5,679.5C 557.266,681.372 547.932,682.372 538.5,682.5C 536.265,682.205 534.265,682.539 532.5,683.5C 512.55,686.491 492.55,689.491 472.5,692.5C 468.663,692.931 464.997,693.598 461.5,694.5C 433.337,699.025 405.337,704.525 377.5,711C 330.325,719.029 283.325,728.029 236.5,738C 216.92,779.042 196.753,819.875 176,860.5C 164.285,880.799 152.785,900.966 141.5,921C 141.833,921.5 142.167,922 142.5,922.5C 232.107,905.015 322.107,888.848 412.5,874C 437.522,867.991 462.855,862.991 488.5,859C 493.559,857.091 498.726,855.591 504,854.5C 506.732,854.615 509.232,855.448 511.5,857C 514.699,860.696 517.699,864.53 520.5,868.5C 518.978,870.156 519.311,871.323 521.5,872C 519.918,874.085 517.918,875.585 515.5,876.5C 510.274,878.415 504.94,880.082 499.5,881.5C 497.473,881.338 495.473,881.505 493.5,882C 492.944,882.383 492.611,882.883 492.5,883.5C 490.194,883.993 487.861,884.326 485.5,884.5C 482.273,884.676 479.273,885.343 476.5,886.5C 434.925,895.732 393.259,904.066 351.5,911.5C 348.478,911.804 345.478,912.304 342.5,913C 341.944,913.383 341.611,913.883 341.5,914.5C 321.826,917.848 302.16,921.181 282.5,924.5C 279.171,924.215 276.171,924.882 273.5,926.5C 244.951,931.432 216.451,936.432 188,941.5C 187.228,941.355 186.561,941.022 186,940.5C 182.949,942.019 179.782,943.019 176.5,943.5C 171.924,943.438 167.591,944.105 163.5,945.5C 156.461,946.282 149.461,947.282 142.5,948.5C 137.12,948.676 131.787,948.342 126.5,947.5C 104.288,941.064 99.4546,928.064 112,908.5C 141.593,856.99 169.426,804.323 195.5,750.5C 192.934,749.905 190.601,750.572 188.5,752.5C 187.883,752.389 187.383,752.056 187,751.5C 185.89,753.037 184.39,753.703 182.5,753.5C 173.969,752.785 170.469,748.118 172,739.5C 176.615,735.442 181.781,732.275 187.5,730C 195.122,727.012 202.789,724.179 210.5,721.5C 250.53,645.185 292.696,570.185 337,496.5C 341.027,491.306 344.86,485.973 348.5,480.5C 349.85,479.05 351.516,478.383 353.5,478.5 Z"/></g>
<g><path style="opacity:1" fill="#afafaf" d="M 430.5,478.5 C 426.119,480.211 421.453,480.877 416.5,480.5C 420.881,478.789 425.547,478.123 430.5,478.5 Z"/></g>
<g><path style="opacity:1" fill="#9b9b9b" d="M 367.5,491.5 C 368.434,492.568 368.768,493.901 368.5,495.5C 366.784,495.629 365.117,495.962 363.5,496.5C 364.287,494.896 365.62,494.229 367.5,494.5C 367.5,493.5 367.5,492.5 367.5,491.5 Z"/></g>
<g><path style="opacity:1" fill="#040404" d="M 2997.5,541.5 C 2994.9,542.265 2992.24,542.599 2989.5,542.5C 2984.8,541.137 2981.8,538.137 2980.5,533.5C 2977.58,532.593 2974.58,532.26 2971.5,532.5C 2967.5,531.167 2963.5,531.167 2959.5,532.5C 2949.82,532.468 2940.15,532.801 2930.5,533.5C 2921.34,533.98 2912.34,534.647 2903.5,535.5C 2885.14,536.621 2866.81,538.121 2848.5,540C 2811.47,545.341 2774.47,550.841 2737.5,556.5C 2733.58,556.43 2729.91,557.097 2726.5,558.5C 2720.66,559.235 2714.99,560.235 2709.5,561.5C 2707.26,561.205 2705.26,561.539 2703.5,562.5C 2694.68,563.696 2685.85,565.362 2677,567.5C 2673.54,576.291 2669.21,584.624 2664,592.5C 2652.56,620.943 2641.72,649.609 2631.5,678.5C 2641.16,677.418 2650.82,676.418 2660.5,675.5C 2663.43,675.435 2666.09,674.768 2668.5,673.5C 2696.43,669.845 2724.43,666.845 2752.5,664.5C 2756.36,664.192 2760.03,663.525 2763.5,662.5C 2800.73,658.544 2838.06,655.044 2875.5,652C 2879.47,651.262 2883.31,650.096 2887,648.5C 2895.41,650.905 2900.24,656.405 2901.5,665C 2900.17,666.333 2898.83,667.667 2897.5,669C 2891.48,670.67 2885.48,672.337 2879.5,674C 2858.75,675.719 2838.08,677.886 2817.5,680.5C 2812.29,680.608 2807.29,681.275 2802.5,682.5C 2795.52,683.354 2788.52,684.021 2781.5,684.5C 2774,685.275 2766.67,686.275 2759.5,687.5C 2753.94,688.896 2748.27,689.562 2742.5,689.5C 2737.06,688.892 2732.06,689.558 2727.5,691.5C 2717.2,693.093 2706.87,694.426 2696.5,695.5C 2690.63,696.049 2684.96,697.049 2679.5,698.5C 2659.78,700.924 2640.11,703.757 2620.5,707C 2612.49,725.926 2605.15,745.093 2598.5,764.5C 2597.08,766.515 2596.41,768.848 2596.5,771.5C 2588.51,795.311 2580.01,818.977 2571,842.5C 2560.48,866.571 2551.64,891.237 2544.5,916.5C 2541.73,920.713 2540.07,925.38 2539.5,930.5C 2538.28,934.383 2535.95,937.383 2532.5,939.5C 2530.14,939.674 2527.81,940.007 2525.5,940.5C 2510.17,937.995 2504.67,929.329 2509,914.5C 2531.65,853.296 2554.32,791.962 2577,730.5C 2579.59,724.909 2582.09,719.243 2584.5,713.5C 2584,713.167 2583.5,712.833 2583,712.5C 2571.7,714.653 2560.2,716.153 2548.5,717C 2546.54,717.931 2544.54,718.764 2542.5,719.5C 2537.97,717.069 2533.3,714.902 2528.5,713C 2526.86,709.915 2525.53,706.749 2524.5,703.5C 2524.69,701.42 2525.69,699.92 2527.5,699C 2533.81,698.257 2539.81,696.591 2545.5,694C 2562.18,690.829 2578.85,687.663 2595.5,684.5C 2609.7,646.586 2626.03,609.586 2644.5,573.5C 2644,573.167 2643.5,572.833 2643,572.5C 2626.5,575.222 2610,577.888 2593.5,580.5C 2588.25,580.862 2583.25,581.862 2578.5,583.5C 2577.83,583.5 2577.17,583.5 2576.5,583.5C 2570.63,583.596 2564.96,584.263 2559.5,585.5C 2556.27,585.676 2553.27,586.343 2550.5,587.5C 2543.99,588.143 2537.49,589.143 2531,590.5C 2527.51,588.323 2523.84,586.323 2520,584.5C 2516.55,580.814 2516.71,577.314 2520.5,574C 2543.31,568.037 2566.31,562.704 2589.5,558C 2619.67,553.084 2649.67,547.751 2679.5,542C 2685.34,541.207 2691.17,540.374 2697,539.5C 2732.59,532.633 2768.76,527.3 2805.5,523.5C 2807.26,523.357 2808.93,523.691 2810.5,524.5C 2811.74,524.058 2812.74,523.391 2813.5,522.5C 2869.57,514.497 2925.9,511.997 2982.5,515C 2988.35,516.167 2993.51,518.667 2998,522.5C 3002.75,529.126 3002.59,535.46 2997.5,541.5 Z"/></g>
<g><path style="opacity:1" fill="#404040" d="M 357.5,505.5 C 351.299,518.38 344.632,531.046 337.5,543.5C 337.043,544.298 336.376,544.631 335.5,544.5C 340.199,534.452 345.199,524.452 350.5,514.5C 352.661,511.284 354.994,508.284 357.5,505.5 Z"/></g>
<g><path style="opacity:1" fill="#919191" d="M 2805.5,523.5 C 2807.95,522.527 2810.61,522.194 2813.5,522.5C 2812.74,523.391 2811.74,524.058 2810.5,524.5C 2808.93,523.691 2807.26,523.357 2805.5,523.5 Z"/></g>
<g><path style="opacity:1" fill="#6b6b6b" d="M 2959.5,532.5 C 2963.5,531.167 2967.5,531.167 2971.5,532.5C 2967.65,532.756 2963.65,532.756 2959.5,532.5 Z"/></g>
<g><path style="opacity:1" fill="#cecece" d="M 2930.5,533.5 C 2930.39,534.117 2930.06,534.617 2929.5,535C 2920.84,535.5 2912.17,535.666 2903.5,535.5C 2912.34,534.647 2921.34,533.98 2930.5,533.5 Z"/></g>
<g><path style="opacity:1" fill="#757575" d="M 2997.5,541.5 C 2996.51,543.026 2995.01,543.693 2993,543.5C 2991.62,543.486 2990.45,543.152 2989.5,542.5C 2992.24,542.599 2994.9,542.265 2997.5,541.5 Z"/></g>
<g><path style="opacity:1" fill="#030303" d="M 2015.5,678.5 C 2010.69,683.795 2007.69,690.128 2006.5,697.5C 2005.03,701.776 2003.03,705.776 2000.5,709.5C 1997.89,712.134 1995.55,715.134 1993.5,718.5C 1990,724.308 1987,730.308 1984.5,736.5C 1980.26,743.973 1975.76,751.306 1971,758.5C 1962.33,770.002 1953.49,781.335 1944.5,792.5C 1945.56,795.068 1947.23,797.235 1949.5,799C 1961.96,806.087 1975.29,808.42 1989.5,806C 2012.32,802.225 2033.66,794.392 2053.5,782.5C 2056.25,760.821 2065.92,742.988 2082.5,729C 2086.41,727.566 2090.41,727.233 2094.5,728C 2102.49,734.504 2107.49,742.671 2109.5,752.5C 2109.72,758.97 2108.89,765.303 2107,771.5C 2103.2,775.968 2099.37,780.468 2095.5,785C 2096.25,785.671 2096.59,786.504 2096.5,787.5C 2093.36,790.469 2090.02,793.302 2086.5,796C 2088.72,797.275 2091.05,798.275 2093.5,799C 2141.93,809.397 2190.93,813.897 2240.5,812.5C 2264.84,812.281 2289.17,811.781 2313.5,811C 2353.82,808.408 2394.16,806.075 2434.5,804C 2445.46,809.416 2450.63,818.249 2450,830.5C 2449.5,831 2449,831.5 2448.5,832C 2431.68,833.647 2414.85,835.147 2398,836.5C 2394.78,836.459 2391.61,836.125 2388.5,835.5C 2386.44,837.019 2384.11,837.853 2381.5,838C 2360.52,839.83 2339.52,841.33 2318.5,842.5C 2309.61,842.197 2300.94,842.863 2292.5,844.5C 2245.41,847.761 2198.41,847.095 2151.5,842.5C 2146.08,840.883 2140.42,840.216 2134.5,840.5C 2122.7,839.299 2111.03,837.299 2099.5,834.5C 2093.13,831.847 2086.79,828.68 2080.5,825C 2076.93,821.92 2073.27,819.087 2069.5,816.5C 2067.88,814.241 2066.05,812.241 2064,810.5C 2045.75,821.198 2026.25,828.865 2005.5,833.5C 1994.5,833.5 1983.5,833.5 1972.5,833.5C 1955.92,828.288 1942.08,818.955 1931,805.5C 1895.48,842.206 1855.31,848.373 1810.5,824C 1805.73,821.069 1801.4,817.569 1797.5,813.5C 1774.67,836.833 1748,854.333 1717.5,866C 1710.22,867.871 1702.89,869.537 1695.5,871C 1674.03,874.121 1655.36,868.287 1639.5,853.5C 1617.51,870.117 1592.85,875.95 1565.5,871C 1558.61,867.779 1551.94,864.112 1545.5,860C 1542.1,857.719 1539.26,854.886 1537,851.5C 1533.8,844.883 1530.8,838.216 1528,831.5C 1518.88,845.623 1507.38,857.456 1493.5,867C 1473.09,878.079 1454.92,875.246 1439,858.5C 1435.55,852.925 1433.21,846.925 1432,840.5C 1420.42,854.1 1406.58,864.6 1390.5,872C 1368.28,879.731 1348.78,875.564 1332,859.5C 1321.82,843.888 1319.82,827.221 1326,809.5C 1329.56,797.603 1333.9,785.937 1339,774.5C 1341.32,767.222 1342.99,759.889 1344,752.5C 1311.66,771.841 1285.66,797.508 1266,829.5C 1259.54,842.416 1254.21,855.749 1250,869.5C 1248.8,873.866 1245.97,876.199 1241.5,876.5C 1232.63,875.771 1226.47,871.438 1223,863.5C 1222.33,861.167 1222.33,858.833 1223,856.5C 1228.47,847.564 1232.8,838.231 1236,828.5C 1226.25,842.919 1214.42,855.419 1200.5,866C 1187.21,874.24 1172.87,877.906 1157.5,877C 1147.21,874.378 1138.38,869.212 1131,861.5C 1127.83,856.166 1125.5,850.499 1124,844.5C 1111.03,855.495 1096.03,861.828 1079,863.5C 1074.38,863.309 1069.88,862.476 1065.5,861C 1061.55,859.002 1057.55,857.002 1053.5,855C 1041.37,844.573 1038.2,831.74 1044,816.5C 1062.82,776.669 1090.65,744.502 1127.5,720C 1135.16,715.279 1143.5,712.446 1152.5,711.5C 1165.98,714.134 1175.48,721.801 1181,734.5C 1181.49,735.793 1181.66,737.127 1181.5,738.5C 1181.27,743.894 1180.6,749.227 1179.5,754.5C 1177.81,758.722 1175.47,762.555 1172.5,766C 1162.39,767.632 1156.73,763.465 1155.5,753.5C 1157.18,747.588 1158.02,741.588 1158,735.5C 1145.73,741.722 1134.56,749.555 1124.5,759C 1099.68,781.856 1080.68,808.69 1067.5,839.5C 1071.83,840.435 1076.16,840.268 1080.5,839C 1096.96,834.676 1110.13,825.509 1120,811.5C 1128.37,798.392 1136.37,785.059 1144,771.5C 1145.83,769.667 1147.67,767.833 1149.5,766C 1151.7,764.627 1154.03,764.294 1156.5,765C 1161.4,768.397 1165.4,772.564 1168.5,777.5C 1168.59,782.537 1168.25,787.537 1167.5,792.5C 1166.22,796.696 1164.55,800.696 1162.5,804.5C 1161.5,804.5 1160.5,804.5 1159.5,804.5C 1156.57,812.638 1154.23,820.971 1152.5,829.5C 1151.25,829.577 1150.42,830.244 1150,831.5C 1147.67,839.22 1147.17,846.887 1148.5,854.5C 1156.52,855.623 1164.52,854.79 1172.5,852C 1180.01,848.491 1187.01,844.157 1193.5,839C 1203.4,829.769 1212.57,819.936 1221,809.5C 1236.97,787.692 1253.14,766.025 1269.5,744.5C 1271.06,743.553 1272.73,742.887 1274.5,742.5C 1276.8,743.649 1279.13,744.815 1281.5,746C 1283.32,748.821 1285.49,751.321 1288,753.5C 1288.61,755.154 1289.11,756.821 1289.5,758.5C 1289.57,760.401 1289.23,762.234 1288.5,764C 1289.63,765.791 1290.63,765.625 1291.5,763.5C 1305.56,750.946 1320.9,740.112 1337.5,731C 1340.5,730.333 1343.5,730.333 1346.5,731C 1357.44,736.425 1364.44,744.925 1367.5,756.5C 1367.64,765.524 1367.31,774.524 1366.5,783.5C 1362.39,795.99 1358.39,808.657 1354.5,821.5C 1352.72,823.023 1351.38,825.023 1350.5,827.5C 1350.28,831.019 1349.28,834.185 1347.5,837C 1349.62,838.523 1349.95,840.356 1348.5,842.5C 1349.03,844.336 1349.69,846.003 1350.5,847.5C 1350.41,848.496 1350.75,849.329 1351.5,850C 1360.71,850.875 1369.71,849.875 1378.5,847C 1389.3,842.432 1398.96,836.099 1407.5,828C 1430.8,803.915 1448.96,776.415 1462,745.5C 1464.21,740.9 1467.05,736.734 1470.5,733C 1472.21,731.455 1474.21,730.622 1476.5,730.5C 1482.75,732.551 1487.92,736.218 1492,741.5C 1493.9,744.171 1494.74,747.171 1494.5,750.5C 1494.15,755.216 1493.49,759.883 1492.5,764.5C 1482.36,781.773 1473.53,799.773 1466,818.5C 1464.25,825.901 1462.25,833.235 1460,840.5C 1459.18,843.227 1459.35,845.894 1460.5,848.5C 1474.31,844.345 1486.14,837.012 1496,826.5C 1516.32,801.187 1534.65,774.52 1551,746.5C 1557.23,737.215 1564.06,728.382 1571.5,720C 1582.32,720.643 1588.65,726.476 1590.5,737.5C 1585.96,745.808 1581.63,754.141 1577.5,762.5C 1576.62,762.369 1575.96,762.702 1575.5,763.5C 1570.35,774.274 1567.02,785.608 1565.5,797.5C 1564.32,801.88 1562.99,806.213 1561.5,810.5C 1560.88,810.611 1560.38,810.944 1560,811.5C 1556.51,821.414 1555.68,831.414 1557.5,841.5C 1586.68,847.226 1610.52,838.226 1629,814.5C 1633.22,788.487 1642.89,764.821 1658,743.5C 1663.76,736.056 1670.93,730.556 1679.5,727C 1683.96,726.133 1688.29,726.466 1692.5,728C 1699.46,732.629 1704.63,738.795 1708,746.5C 1708.49,748.134 1708.66,749.801 1708.5,751.5C 1707.95,754.807 1707.62,758.14 1707.5,761.5C 1704.22,770.458 1700.05,779.124 1695,787.5C 1688.4,797.705 1681.06,807.372 1673,816.5C 1669.13,823.376 1664.13,829.376 1658,834.5C 1657.23,837.099 1657.4,839.599 1658.5,842C 1665.43,843.506 1672.43,843.839 1679.5,843C 1719.47,838.015 1753.14,820.849 1780.5,791.5C 1774.09,775.234 1772.93,758.567 1777,741.5C 1788.18,704.33 1805.52,670.33 1829,639.5C 1842.02,622.314 1857.19,607.314 1874.5,594.5C 1877.67,593.281 1880.67,591.781 1883.5,590C 1889.03,587.694 1894.37,588.027 1899.5,591C 1913.35,603.856 1918.18,619.689 1914,638.5C 1911.58,645.928 1909.41,653.428 1907.5,661C 1901.22,674.396 1894.05,687.23 1886,699.5C 1861.97,732.877 1837.13,765.71 1811.5,798C 1822.17,804.753 1833.84,808.587 1846.5,809.5C 1852.65,810.653 1858.99,810.82 1865.5,810C 1866.74,809.768 1867.74,809.268 1868.5,808.5C 1880.01,805.908 1890.68,801.408 1900.5,795C 1906.61,790.524 1912.44,785.691 1918,780.5C 1914.71,754.841 1916.38,729.508 1923,704.5C 1939.99,650.847 1969.82,605.681 2012.5,569C 2018,565.084 2023.66,561.418 2029.5,558C 2034.1,555.524 2038.26,556.024 2042,559.5C 2047.19,565.195 2050.36,571.861 2051.5,579.5C 2041.46,613.288 2029.46,646.288 2015.5,678.5 Z"/></g>
<g><path style="opacity:1" fill="#686868" d="M 2737.5,556.5 C 2734.12,558.082 2730.46,558.749 2726.5,558.5C 2729.91,557.097 2733.58,556.43 2737.5,556.5 Z"/></g>
<g><path style="opacity:1" fill="#747474" d="M 2703.5,562.5 C 2705.26,561.539 2707.26,561.205 2709.5,561.5C 2707.79,563.512 2705.79,563.846 2703.5,562.5 Z"/></g>
<g><path style="opacity:1" fill="#a9a9a9" d="M 2593.5,580.5 C 2592.49,581.765 2590.99,582.431 2589,582.5C 2585.51,582.999 2582.01,583.332 2578.5,583.5C 2583.25,581.862 2588.25,580.862 2593.5,580.5 Z"/></g>
<g><path style="opacity:1" fill="#4e4e4e" d="M 2576.5,583.5 C 2571.08,585.117 2565.42,585.784 2559.5,585.5C 2564.96,584.263 2570.63,583.596 2576.5,583.5 Z"/></g>
<g><path style="opacity:1" fill="#787878" d="M 2559.5,585.5 C 2556.83,587.118 2553.83,587.785 2550.5,587.5C 2553.27,586.343 2556.27,585.676 2559.5,585.5 Z"/></g>
<g><path style="opacity:1" fill="#f9f9f9" d="M 1955.5,692.5 C 1958.87,686.092 1961.87,679.426 1964.5,672.5C 1972.39,657.736 1981.05,643.403 1990.5,629.5C 1997.8,621.192 2005.14,612.859 2012.5,604.5C 2014.8,602.706 2016.96,600.706 2019,598.5C 2005.25,643.391 1986.25,686.058 1962,726.5C 1955.24,736.344 1948.24,746.01 1941,755.5C 1941.1,748.147 1941.76,740.814 1943,733.5C 1947,719.838 1951.17,706.171 1955.5,692.5 Z"/></g>
<g><path style="opacity:1" fill="#f9f9f9" d="M 1890.5,618.5 C 1891.12,618.917 1891.46,619.584 1891.5,620.5C 1887.72,638.671 1880.88,655.671 1871,671.5C 1850.14,703.889 1827.81,735.222 1804,765.5C 1805.08,754.503 1807.75,743.836 1812,733.5C 1824.95,701.269 1842.28,671.602 1864,644.5C 1872.07,634.934 1880.9,626.267 1890.5,618.5 Z"/></g>
<g><path style="opacity:1" fill="#212121" d="M 2012.5,604.5 C 2005.14,612.859 1997.8,621.192 1990.5,629.5C 1990.61,627.217 1991.44,625.217 1993,623.5C 1998.39,618.422 2003.05,612.755 2007,606.5C 2008.44,604.845 2010.28,604.178 2012.5,604.5 Z"/></g>
<g><path style="opacity:1" fill="#040404" d="M 3186.5,776.5 C 3183.79,779.247 3182.13,782.58 3181.5,786.5C 3181.37,788.216 3181.04,789.883 3180.5,791.5C 3177.92,793.845 3176.92,796.845 3177.5,800.5C 3176.51,803.081 3175.51,805.748 3174.5,808.5C 3173.88,808.611 3173.38,808.944 3173,809.5C 3172.5,811.81 3172.34,814.143 3172.5,816.5C 3171.52,819.067 3170.86,821.733 3170.5,824.5C 3188.64,826.724 3204.31,821.724 3217.5,809.5C 3222.48,803.353 3227.65,797.353 3233,791.5C 3243.3,774.213 3253.97,757.213 3265,740.5C 3268.56,737.131 3272.72,735.631 3277.5,736C 3288.47,742.097 3292.8,751.264 3290.5,763.5C 3287.29,769.085 3284.95,775.085 3283.5,781.5C 3280.44,787.259 3277.77,793.259 3275.5,799.5C 3272.03,805.503 3271.03,811.836 3272.5,818.5C 3272.92,820.752 3274.25,822.252 3276.5,823C 3291.49,823.115 3304.82,818.448 3316.5,809C 3329.83,797.341 3341.33,784.174 3351,769.5C 3355.33,761.833 3359.67,754.167 3364,746.5C 3366.07,744.084 3368.41,742.084 3371,740.5C 3372.55,740.05 3374.05,739.883 3375.5,740C 3381.13,744.629 3385.63,750.129 3389,756.5C 3390.75,762.174 3390.59,767.841 3388.5,773.5C 3387.08,775.515 3386.41,777.848 3386.5,780.5C 3383.67,786.661 3381.33,792.994 3379.5,799.5C 3378.5,799.414 3377.67,799.748 3377,800.5C 3376.16,803.202 3375.33,805.868 3374.5,808.5C 3350.81,855.217 3328.14,902.551 3306.5,950.5C 3305.5,950.414 3304.67,950.748 3304,951.5C 3302.85,955.112 3302.02,958.778 3301.5,962.5C 3300.2,963.601 3299.7,964.934 3300,966.5C 3335.32,948.063 3372.15,933.563 3410.5,923C 3437.17,916.44 3464.17,914.774 3491.5,918C 3495.66,921.159 3499.49,924.659 3503,928.5C 3504.95,931.64 3505.95,934.973 3506,938.5C 3505.5,939 3505,939.5 3504.5,940C 3487.48,940.184 3470.48,940.851 3453.5,942C 3434.51,945.747 3415.84,950.414 3397.5,956C 3356.34,971.778 3317.01,991.278 3279.5,1014.5C 3278.14,1016.03 3276.97,1017.7 3276,1019.5C 3258.9,1065.8 3238.9,1110.8 3216,1154.5C 3198.51,1187.67 3176.01,1217.17 3148.5,1243C 3133.78,1255.11 3117.95,1265.61 3101,1274.5C 3094.64,1276.88 3088.14,1278.55 3081.5,1279.5C 3077.48,1279.35 3073.48,1279.02 3069.5,1278.5C 3052.12,1276.22 3042.79,1266.39 3041.5,1249C 3041.65,1243.47 3042.15,1237.97 3043,1232.5C 3071.12,1150.37 3120.62,1084.21 3191.5,1034C 3212.9,1018.88 3234.74,1004.38 3257,990.5C 3277.69,938.807 3299.69,887.807 3323,837.5C 3306.91,849.078 3289.41,851.578 3270.5,845C 3265.4,842.356 3260.9,838.856 3257,834.5C 3254.42,828.348 3251.59,822.348 3248.5,816.5C 3239.07,829.766 3227.07,839.933 3212.5,847C 3207.45,848.373 3202.45,849.54 3197.5,850.5C 3191.75,851.111 3186.08,851.111 3180.5,850.5C 3175.26,849.436 3170.26,847.603 3165.5,845C 3161.18,841.838 3156.85,838.671 3152.5,835.5C 3149.79,831.646 3147.45,827.646 3145.5,823.5C 3137.08,837.254 3125.75,847.921 3111.5,855.5C 3109.1,855.259 3107.1,855.926 3105.5,857.5C 3099.47,861.343 3093.8,865.843 3088.5,871C 3063.74,887.812 3036.24,897.312 3006,899.5C 2985.01,898.601 2967.01,890.935 2952,876.5C 2942.05,861.766 2939.72,845.766 2945,828.5C 2950.97,804.461 2959.47,781.295 2970.5,759C 2970.17,758.5 2969.83,758 2969.5,757.5C 2966.89,758.23 2964.22,758.73 2961.5,759C 2954.14,762.261 2946.47,764.761 2938.5,766.5C 2935.84,766.935 2933.51,767.935 2931.5,769.5C 2925.72,770.828 2919.89,771.828 2914,772.5C 2903.49,790.208 2892.49,807.541 2881,824.5C 2867.91,842.778 2850.74,855.278 2829.5,862C 2822.48,863.586 2815.48,865.252 2808.5,867C 2794.44,869.755 2781.94,866.588 2771,857.5C 2767.36,853.192 2763.7,848.858 2760,844.5C 2757.89,839.431 2755.72,834.431 2753.5,829.5C 2748.45,833.016 2743.45,836.516 2738.5,840C 2736.13,840.735 2733.8,841.568 2731.5,842.5C 2730.7,842.957 2730.37,843.624 2730.5,844.5C 2727.39,844.555 2725.05,845.888 2723.5,848.5C 2718.65,851.09 2713.65,853.424 2708.5,855.5C 2705.11,857.197 2701.77,858.864 2698.5,860.5C 2692.32,862.921 2686.32,865.921 2680.5,869.5C 2676.77,869.495 2673.77,870.829 2671.5,873.5C 2662.1,877.661 2652.77,877.494 2643.5,873C 2639.71,870.06 2638.05,866.227 2638.5,861.5C 2668.32,849.866 2696.99,835.533 2724.5,818.5C 2735.46,810.345 2746.46,802.178 2757.5,794C 2759.84,785.471 2762.34,776.971 2765,768.5C 2769.43,760.8 2773.26,752.8 2776.5,744.5C 2781.46,735.031 2788.13,726.865 2796.5,720C 2798.61,719.155 2800.61,718.322 2802.5,717.5C 2805.57,717.368 2808.57,717.701 2811.5,718.5C 2813.53,721.013 2816.2,722.513 2819.5,723C 2821.43,726.053 2823.93,728.553 2827,730.5C 2828.42,732.405 2829.59,734.405 2830.5,736.5C 2831.26,744.142 2831.6,751.809 2831.5,759.5C 2830.76,763.726 2829.42,767.726 2827.5,771.5C 2825.67,773.147 2824.34,775.147 2823.5,777.5C 2814.48,787.848 2805.15,797.848 2795.5,807.5C 2792.32,809.842 2788.98,812.008 2785.5,814C 2784.14,815.584 2783.47,817.418 2783.5,819.5C 2780.74,825.926 2780.9,832.26 2784,838.5C 2788.1,843.145 2793.26,845.145 2799.5,844.5C 2824.38,843.1 2844.21,832.433 2859,812.5C 2862.75,806.658 2866.75,800.991 2871,795.5C 2880.47,779.05 2890.3,762.883 2900.5,747C 2905.6,743.855 2910.27,744.521 2914.5,749C 2915.83,749.667 2917.17,749.667 2918.5,749C 2936.98,742.705 2955.65,737.038 2974.5,732C 2981.96,728.842 2989.46,725.676 2997,722.5C 3007.13,724.969 3013.63,731.136 3016.5,741C 2998.41,775.395 2984.24,811.561 2974,849.5C 2973.07,855.821 2972.73,862.154 2973,868.5C 2976.68,870.371 2980.51,871.871 2984.5,873C 3012.64,874.647 3038.64,868.314 3062.5,854C 3051.4,850.557 3044.9,843.057 3043,831.5C 3042.33,827.5 3042.33,823.5 3043,819.5C 3045.54,811.432 3048.87,803.766 3053,796.5C 3062.73,781.042 3073.9,766.708 3086.5,753.5C 3087.39,752.675 3087.72,751.675 3087.5,750.5C 3088.68,750.719 3089.68,750.386 3090.5,749.5C 3102.83,734.003 3118.16,722.503 3136.5,715C 3149.41,711.578 3160.74,714.244 3170.5,723C 3171.64,723.749 3172.64,723.583 3173.5,722.5C 3185.27,702.295 3195.44,681.295 3204,659.5C 3209.28,646.769 3217.11,635.935 3227.5,627C 3229.5,626.333 3231.5,626.333 3233.5,627C 3236.88,628.932 3239.72,631.432 3242,634.5C 3243.93,637.614 3244.6,640.947 3244,644.5C 3235.02,663.136 3226.02,681.802 3217,700.5C 3206.31,725.758 3196.14,751.091 3186.5,776.5 Z"/></g>
<g><path style="opacity:1" fill="#555555" d="M 2763.5,662.5 C 2760.03,663.525 2756.36,664.192 2752.5,664.5C 2755.84,662.783 2759.51,662.116 2763.5,662.5 Z"/></g>
<g><path style="opacity:1" fill="#2c2c2c" d="M 1964.5,672.5 C 1961.87,679.426 1958.87,686.092 1955.5,692.5C 1955.65,689.557 1956.31,686.724 1957.5,684C 1959.57,680.695 1961.24,677.195 1962.5,673.5C 1963.18,673.137 1963.85,672.804 1964.5,672.5 Z"/></g>
<g><path style="opacity:1" fill="#5f5f5f" d="M 2668.5,673.5 C 2666.09,674.768 2663.43,675.435 2660.5,675.5C 2662.84,673.96 2665.5,673.294 2668.5,673.5 Z"/></g>
<g><path style="opacity:1" fill="#363636" d="M 593.5,677.5 C 584.701,678.867 575.701,679.534 566.5,679.5C 575.283,677.903 584.283,677.236 593.5,677.5 Z"/></g>
<g><path style="opacity:1" fill="#b9b9b9" d="M 2817.5,680.5 C 2812.78,682.238 2807.78,682.904 2802.5,682.5C 2807.29,681.275 2812.29,680.608 2817.5,680.5 Z"/></g>
<g><path style="opacity:1" fill="#8c8c8c" d="M 532.5,683.5 C 534.265,682.539 536.265,682.205 538.5,682.5C 536.842,684.654 534.842,684.987 532.5,683.5 Z"/></g>
<g><path style="opacity:1" fill="#a7a7a7" d="M 2781.5,684.5 C 2774.47,686.779 2767.14,687.779 2759.5,687.5C 2766.67,686.275 2774,685.275 2781.5,684.5 Z"/></g>
<g><path style="opacity:1" fill="#2c2c2c" d="M 2015.5,678.5 C 2013.44,685.38 2010.44,691.713 2006.5,697.5C 2007.69,690.128 2010.69,683.795 2015.5,678.5 Z"/></g>
<g><path style="opacity:1" fill="#3d3d3d" d="M 2742.5,689.5 C 2737.71,690.725 2732.71,691.392 2727.5,691.5C 2732.06,689.558 2737.06,688.892 2742.5,689.5 Z"/></g>
<g><path style="opacity:1" fill="#969696" d="M 472.5,692.5 C 472.082,693.222 471.416,693.722 470.5,694C 467.518,694.498 464.518,694.665 461.5,694.5C 464.997,693.598 468.663,692.931 472.5,692.5 Z"/></g>
<g><path style="opacity:1" fill="#adadad" d="M 2696.5,695.5 C 2696.08,696.222 2695.42,696.722 2694.5,697C 2689.54,697.912 2684.54,698.412 2679.5,698.5C 2684.96,697.049 2690.63,696.049 2696.5,695.5 Z"/></g>
<g><path style="opacity:1" fill="#040404" d="M 723.5,728.5 C 723.54,736.187 723.207,743.854 722.5,751.5C 721.489,753.402 721.322,755.402 722,757.5C 730.813,745.355 740.98,734.522 752.5,725C 756.741,723.543 761.074,723.209 765.5,724C 777.252,729.415 785.085,738.248 789,750.5C 793.859,768.018 793.192,785.351 787,802.5C 778.682,821.785 771.349,841.451 765,861.5C 763.042,868.789 761.542,876.122 760.5,883.5C 759.057,889.1 758.39,894.933 758.5,901C 758.501,904.683 758.835,908.183 759.5,911.5C 759.112,916.628 759.612,921.628 761,926.5C 764.966,921.722 769.466,921.222 774.5,925C 779.59,928.701 782.423,933.535 783,939.5C 778.719,945.702 772.886,948.202 765.5,947C 756.757,944.908 749.591,940.408 744,933.5C 737.475,923.111 733.808,911.777 733,899.5C 730.804,875.779 733.804,852.779 742,830.5C 749.311,813.874 756.644,797.207 764,780.5C 765.181,775.44 766.515,770.44 768,765.5C 769.149,757.293 768.482,749.293 766,741.5C 758.354,746.645 751.854,752.979 746.5,760.5C 745.675,761.386 744.675,761.719 743.5,761.5C 742.951,763.901 742.118,766.235 741,768.5C 735.41,775.349 730.577,782.682 726.5,790.5C 724.259,791.3 723.259,792.966 723.5,795.5C 714.248,813.995 704.415,832.328 694,850.5C 690.29,856.087 686.457,861.587 682.5,867C 680.662,866.367 678.829,866.534 677,867.5C 668.988,865.838 662.988,861.505 659,854.5C 659.146,850.041 660.146,845.708 662,841.5C 672.043,816.713 681.71,791.713 691,766.5C 695.085,754.53 697.918,742.53 699.5,730.5C 677.009,750.818 656.509,772.818 638,796.5C 624.692,819.106 612.359,842.439 601,866.5C 599.667,868.833 597.667,869.833 595,869.5C 585.315,869.263 579.148,864.596 576.5,855.5C 576.692,853.423 577.192,851.423 578,849.5C 603.297,801.747 629.131,754.414 655.5,707.5C 659.185,704.924 662.851,705.09 666.5,708C 668.667,710.167 670.833,712.333 673,714.5C 674.256,717.522 674.589,720.522 674,723.5C 680.918,716.578 688.418,710.411 696.5,705C 699.077,703.75 701.743,703.416 704.5,704C 712.312,708.147 718.479,713.98 723,721.5C 723.497,723.81 723.663,726.143 723.5,728.5 Z"/></g>
<g><path style="opacity:1" fill="#040404" d="M 1017.5,757.5 C 1017.72,765.772 1017.39,774.105 1016.5,782.5C 1015.37,785.465 1014.37,788.465 1013.5,791.5C 1012.26,793.214 1011.59,795.214 1011.5,797.5C 990.983,850.385 972.649,904.051 956.5,958.5C 954.906,963.569 953.239,968.736 951.5,974C 950.714,977.458 950.38,980.958 950.5,984.5C 948.112,997.825 945.612,1011.16 943,1024.5C 942.169,1030.48 941.669,1036.48 941.5,1042.5C 939.614,1049.12 939.281,1055.78 940.5,1062.5C 940.276,1068.32 941.11,1073.99 943,1079.5C 944.883,1082.02 947.383,1083.36 950.5,1083.5C 950.5,1084.5 950.5,1085.5 950.5,1086.5C 954.5,1085.83 956.167,1087.5 955.5,1091.5C 956.675,1091.28 957.675,1091.61 958.5,1092.5C 958.376,1093.11 958.043,1093.44 957.5,1093.5C 956.751,1094.53 956.085,1095.7 955.5,1097C 953.527,1097.5 951.527,1097.66 949.5,1097.5C 937.645,1095.83 928.811,1089.83 923,1079.5C 918.017,1067.37 915.85,1054.7 916.5,1041.5C 916.849,1029.47 917.682,1017.47 919,1005.5C 930.37,926.365 953.37,850.699 988,778.5C 990.619,770.81 993.119,763.143 995.5,755.5C 995.167,754.833 994.833,754.167 994.5,753.5C 972.377,763.955 956.377,780.288 946.5,802.5C 943.551,805.687 941.051,809.354 939,813.5C 937.568,818.949 936.068,824.282 934.5,829.5C 931.74,830.527 931.073,832.36 932.5,835C 929.846,839.044 928.513,843.544 928.5,848.5C 926.436,853.644 924.936,858.977 924,864.5C 922.287,869.038 919.12,870.538 914.5,869C 902.414,866.757 897.581,859.591 900,847.5C 904.794,822.06 909.794,796.727 915,771.5C 915.83,765.472 915.664,759.472 914.5,753.5C 911.06,755.1 907.726,756.933 904.5,759C 888.356,771.811 873.523,785.978 860,801.5C 850.54,824.994 840.54,848.327 830,871.5C 828.5,873 827,874.5 825.5,876C 823.5,876.667 821.5,876.667 819.5,876C 815.993,873.746 812.327,871.746 808.5,870C 805.19,866.396 803.357,862.229 803,857.5C 811.433,836.634 821.433,816.634 833,797.5C 841.21,776.753 850.21,756.419 860,736.5C 863.484,730.368 867.151,724.368 871,718.5C 875.328,713.81 880.162,713.31 885.5,717C 890.148,720.295 893.148,724.628 894.5,730C 892.437,734.069 889.604,737.569 886,740.5C 884.126,742.569 883.126,744.902 883,747.5C 890.939,741.031 899.939,736.698 910,734.5C 929.006,739.86 938.672,752.526 939,772.5C 949.38,759.113 961.88,748.28 976.5,740C 983.055,736.489 990.055,735.156 997.5,736C 1007.11,740.44 1013.77,747.607 1017.5,757.5 Z"/></g>
<g><path style="opacity:1" fill="#9f9f9f" d="M 2802.5,717.5 C 2804.97,716.366 2807.63,716.199 2810.5,717C 2811.06,717.383 2811.39,717.883 2811.5,718.5C 2808.57,717.701 2805.57,717.368 2802.5,717.5 Z"/></g>
<g><path style="opacity:1" fill="#030303" d="M 3768.5,748.5 C 3768.01,757.16 3766.01,765.494 3762.5,773.5C 3763.35,775.409 3763.68,777.409 3763.5,779.5C 3762.32,779.281 3761.32,779.614 3760.5,780.5C 3761.61,781.265 3762.28,782.265 3762.5,783.5C 3757.47,798.783 3753.14,814.283 3749.5,830C 3750.25,833.673 3751.92,836.839 3754.5,839.5C 3759.15,842.416 3764.15,844.583 3769.5,846C 3820.1,857.553 3870.44,856.553 3920.5,843C 3934.63,838.399 3947.96,832.065 3960.5,824C 3964.37,821.864 3968.37,821.364 3972.5,822.5C 3982.97,829.442 3988.8,839.108 3990,851.5C 3970.24,866.131 3948.4,876.631 3924.5,883C 3886.71,893.238 3848.38,896.405 3809.5,892.5C 3806.37,891.419 3803.04,890.753 3799.5,890.5C 3774.48,887.665 3752.15,878.499 3732.5,863C 3711.03,844.318 3704.53,821.151 3713,793.5C 3715.67,784.146 3719.51,775.313 3724.5,767C 3718.53,771.639 3713.03,777.139 3708,783.5C 3701.73,795.127 3695.4,806.794 3689,818.5C 3685.89,826.944 3681.89,834.944 3677,842.5C 3672.77,856.909 3668.44,871.242 3664,885.5C 3659.13,889.785 3653.96,890.451 3648.5,887.5C 3648.03,886.094 3647.03,885.427 3645.5,885.5C 3636.46,880.927 3630.29,873.927 3627,864.5C 3626.33,861.833 3626.33,859.167 3627,856.5C 3637.31,832.58 3646.64,808.247 3655,783.5C 3657.3,778.264 3659.8,773.098 3662.5,768C 3662.17,767.833 3661.83,767.667 3661.5,767.5C 3646.38,776.448 3632.88,787.448 3621,800.5C 3609.29,814.546 3597.95,828.879 3587,843.5C 3576.19,856.981 3563.02,867.481 3547.5,875C 3520.22,885.147 3497.05,879.314 3478,857.5C 3475.9,854.295 3474.07,850.962 3472.5,847.5C 3459.6,860.782 3443.94,868.449 3425.5,870.5C 3420.77,870.625 3416.44,869.625 3412.5,867.5C 3412.63,866.624 3412.3,865.957 3411.5,865.5C 3408.63,863.807 3405.63,862.473 3402.5,861.5C 3396.22,857.639 3392.39,851.973 3391,844.5C 3390.07,837.996 3390.74,831.662 3393,825.5C 3408.67,797.154 3428.17,771.654 3451.5,749C 3459.3,742.265 3467.64,736.265 3476.5,731C 3485.2,726.856 3494.2,725.856 3503.5,728C 3513.47,734.452 3520.13,743.285 3523.5,754.5C 3523.63,760.203 3523.29,765.87 3522.5,771.5C 3522.02,772.416 3521.69,773.416 3521.5,774.5C 3522.66,777.495 3523.83,780.495 3525,783.5C 3525.67,784.833 3525.67,786.167 3525,787.5C 3516.56,804.28 3508.56,821.28 3501,838.5C 3499.96,841.757 3499.46,845.09 3499.5,848.5C 3516.3,851.385 3531.3,847.551 3544.5,837C 3561.19,820.755 3576.36,803.255 3590,784.5C 3612.88,758.592 3640.72,740.425 3673.5,730C 3677.5,729.333 3681.5,729.333 3685.5,730C 3690.73,734.612 3695.4,739.779 3699.5,745.5C 3708.82,738.504 3718.49,732.004 3728.5,726C 3735.78,721.636 3743.45,720.636 3751.5,723C 3759.89,729.851 3765.55,738.351 3768.5,748.5 Z"/></g>
<g><path style="opacity:1" fill="#2b2b2b" d="M 2000.5,709.5 C 1995.91,719.031 1990.57,728.031 1984.5,736.5C 1987,730.308 1990,724.308 1993.5,718.5C 1995.55,715.134 1997.89,712.134 2000.5,709.5 Z"/></g>
<g><path style="opacity:1" fill="#575757" d="M 3160.5,739.5 C 3155.54,740.173 3150.54,741.173 3145.5,742.5C 3146.6,741.442 3147.93,740.608 3149.5,740C 3153.15,739.501 3156.82,739.335 3160.5,739.5 Z"/></g>
<g><path style="opacity:1" fill="#fbfbfb" d="M 3160.5,739.5 C 3161.38,739.369 3162.04,739.702 3162.5,740.5C 3159.35,748.097 3155.18,755.097 3150,761.5C 3140.47,783.568 3128.14,803.901 3113,822.5C 3100.8,833.687 3086.3,838.687 3069.5,837.5C 3069.73,833.708 3070.56,830.041 3072,826.5C 3086.8,802.17 3103.97,779.837 3123.5,759.5C 3130.49,753.344 3137.83,747.677 3145.5,742.5C 3150.54,741.173 3155.54,740.173 3160.5,739.5 Z"/></g>
<g><path style="opacity:1" fill="#8f8f8f" d="M 723.5,728.5 C 724.164,731.146 724.498,733.979 724.5,737C 724.595,742.079 723.928,746.912 722.5,751.5C 723.207,743.854 723.54,736.187 723.5,728.5 Z"/></g>
<g><path style="opacity:1" fill="#484848" d="M 2830.5,736.5 C 2831.12,736.611 2831.62,736.944 2832,737.5C 2832.82,745.012 2832.66,752.345 2831.5,759.5C 2831.6,751.809 2831.26,744.142 2830.5,736.5 Z"/></g>
<g><path style="opacity:1" fill="#555555" d="M 1181.5,738.5 C 1182.16,739.622 1182.49,740.955 1182.5,742.5C 1182.34,746.852 1181.34,750.852 1179.5,754.5C 1180.6,749.227 1181.27,743.894 1181.5,738.5 Z"/></g>
<g><path style="opacity:1" fill="#898989" d="M 188.5,752.5 C 186.68,754.461 184.68,754.794 182.5,753.5C 184.39,753.703 185.89,753.037 187,751.5C 187.383,752.056 187.883,752.389 188.5,752.5 Z"/></g>
<g><path style="opacity:1" fill="#545454" d="M 1494.5,750.5 C 1495.97,755.408 1495.3,760.074 1492.5,764.5C 1493.49,759.883 1494.15,755.216 1494.5,750.5 Z"/></g>
<g><path style="opacity:1" fill="#f9f9f9" d="M 3496.5,755.5 C 3497.5,755.47 3498.16,755.97 3498.5,757C 3497.26,762.511 3496.09,768.011 3495,773.5C 3482.3,790.709 3469.3,807.709 3456,824.5C 3447.39,831.22 3438.23,837.053 3428.5,842C 3425.87,842.995 3423.21,843.328 3420.5,843C 3436.42,815.406 3455.75,790.406 3478.5,768C 3484.39,763.564 3490.39,759.398 3496.5,755.5 Z"/></g>
<g><path style="opacity:1" fill="#767676" d="M 1708.5,751.5 C 1709.49,754.897 1709.16,758.23 1707.5,761.5C 1707.62,758.14 1707.95,754.807 1708.5,751.5 Z"/></g>
<g><path style="opacity:1" fill="#4d4d4d" d="M 1017.5,757.5 C 1020.16,765.919 1019.83,774.253 1016.5,782.5C 1017.39,774.105 1017.72,765.772 1017.5,757.5 Z"/></g>
<g><path style="opacity:1" fill="#727272" d="M 1289.5,758.5 C 1290.17,760.167 1290.83,761.833 1291.5,763.5C 1290.63,765.625 1289.63,765.791 1288.5,764C 1289.23,762.234 1289.57,760.401 1289.5,758.5 Z"/></g>
<g><path style="opacity:1" fill="#5a5a5a" d="M 1367.5,756.5 C 1368.17,759.984 1368.5,763.651 1368.5,767.5C 1368.68,773.086 1368.02,778.42 1366.5,783.5C 1367.31,774.524 1367.64,765.524 1367.5,756.5 Z"/></g>
<g><path style="opacity:1" fill="#494949" d="M 3523.5,754.5 C 3524.16,756.641 3524.5,758.975 3524.5,761.5C 3524.69,765.141 3524.02,768.474 3522.5,771.5C 3523.29,765.87 3523.63,760.203 3523.5,754.5 Z"/></g>
<g><path style="opacity:1" fill="#232323" d="M 3768.5,748.5 C 3769.65,752.981 3769.82,757.648 3769,762.5C 3766.66,769.565 3764.49,776.565 3762.5,783.5C 3762.28,782.265 3761.61,781.265 3760.5,780.5C 3761.32,779.614 3762.32,779.281 3763.5,779.5C 3763.68,777.409 3763.35,775.409 3762.5,773.5C 3766.01,765.494 3768.01,757.16 3768.5,748.5 Z"/></g>
<g><path style="opacity:1" fill="#6a6a6a" d="M 2938.5,766.5 C 2936.68,768.448 2934.35,769.448 2931.5,769.5C 2933.51,767.935 2935.84,766.935 2938.5,766.5 Z"/></g>
<g><path style="opacity:1" fill="#676767" d="M 2598.5,764.5 C 2598.59,767.152 2597.92,769.485 2596.5,771.5C 2596.41,768.848 2597.08,766.515 2598.5,764.5 Z"/></g>
<g><path style="opacity:1" fill="#494949" d="M 3290.5,763.5 C 3289.35,770.034 3287.01,776.034 3283.5,781.5C 3284.95,775.085 3287.29,769.085 3290.5,763.5 Z"/></g>
<g><path style="opacity:1" fill="#9c9c9c" d="M 2827.5,771.5 C 2828.14,774.856 2826.8,776.856 2823.5,777.5C 2824.34,775.147 2825.67,773.147 2827.5,771.5 Z"/></g>
<g><path style="opacity:1" fill="#222222" d="M 2109.5,752.5 C 2112,766.562 2107.67,778.228 2096.5,787.5C 2096.59,786.504 2096.25,785.671 2095.5,785C 2099.37,780.468 2103.2,775.968 2107,771.5C 2108.89,765.303 2109.72,758.97 2109.5,752.5 Z"/></g>
<g><path style="opacity:1" fill="#787878" d="M 3388.5,773.5 C 3388.59,776.152 3387.92,778.485 3386.5,780.5C 3386.41,777.848 3387.08,775.515 3388.5,773.5 Z"/></g>
<g><path style="opacity:1" fill="#232323" d="M 1577.5,762.5 C 1573.46,774.187 1569.46,785.854 1565.5,797.5C 1567.02,785.608 1570.35,774.274 1575.5,763.5C 1575.96,762.702 1576.62,762.369 1577.5,762.5 Z"/></g>
<g><path style="opacity:1" fill="#5b5b5b" d="M 3186.5,776.5 C 3186.31,780.663 3184.64,783.996 3181.5,786.5C 3182.13,782.58 3183.79,779.247 3186.5,776.5 Z"/></g>
<g><path style="opacity:1" fill="#7f7f7f" d="M 1168.5,777.5 C 1170.98,782.611 1170.65,787.611 1167.5,792.5C 1168.25,787.537 1168.59,782.537 1168.5,777.5 Z"/></g>
<g><path style="opacity:1" fill="#787878" d="M 1013.5,791.5 C 1013.74,793.898 1013.07,795.898 1011.5,797.5C 1011.59,795.214 1012.26,793.214 1013.5,791.5 Z"/></g>
<g><path style="opacity:1" fill="#787878" d="M 726.5,790.5 C 725.737,792.368 724.737,794.035 723.5,795.5C 723.259,792.966 724.259,791.3 726.5,790.5 Z"/></g>
<g><path style="opacity:1" fill="#979797" d="M 2823.5,777.5 C 2823.66,778.873 2823.49,780.207 2823,781.5C 2814.29,790.709 2805.13,799.376 2795.5,807.5C 2805.15,797.848 2814.48,787.848 2823.5,777.5 Z"/></g>
<g><path style="opacity:1" fill="#636363" d="M 3180.5,791.5 C 3180.07,794.785 3179.07,797.785 3177.5,800.5C 3176.92,796.845 3177.92,793.845 3180.5,791.5 Z"/></g>
<g><path style="opacity:1" fill="#848484" d="M 3379.5,799.5 C 3378.03,802.796 3376.36,805.796 3374.5,808.5C 3375.33,805.868 3376.16,803.202 3377,800.5C 3377.67,799.748 3378.5,799.414 3379.5,799.5 Z"/></g>
<g><path style="opacity:1" fill="#414141" d="M 1868.5,808.5 C 1867.74,809.268 1866.74,809.768 1865.5,810C 1858.99,810.82 1852.65,810.653 1846.5,809.5C 1853.87,809.683 1861.2,809.35 1868.5,808.5 Z"/></g>
<g><path style="opacity:1" fill="#6a6a6a" d="M 3174.5,808.5 C 3174.43,811.428 3173.77,814.095 3172.5,816.5C 3172.34,814.143 3172.5,811.81 3173,809.5C 3173.38,808.944 3173.88,808.611 3174.5,808.5 Z"/></g>
<g><path style="opacity:1" fill="#565656" d="M 2795.5,807.5 C 2791.78,811.888 2787.78,815.888 2783.5,819.5C 2783.47,817.418 2784.14,815.584 2785.5,814C 2788.98,812.008 2792.32,809.842 2795.5,807.5 Z"/></g>
<g><path style="opacity:1" fill="#393939" d="M 1561.5,810.5 C 1558.55,820.537 1557.22,830.87 1557.5,841.5C 1555.68,831.414 1556.51,821.414 1560,811.5C 1560.38,810.944 1560.88,810.611 1561.5,810.5 Z"/></g>
<g><path style="opacity:1" fill="#2c2c2c" d="M 1162.5,804.5 C 1159.4,813.017 1156.07,821.35 1152.5,829.5C 1154.23,820.971 1156.57,812.638 1159.5,804.5C 1160.5,804.5 1161.5,804.5 1162.5,804.5 Z"/></g>
<g><path style="opacity:1" fill="#757575" d="M 3275.5,799.5 C 3273.6,805.68 3272.6,812.013 3272.5,818.5C 3271.03,811.836 3272.03,805.503 3275.5,799.5 Z"/></g>
<g><path style="opacity:1" fill="#4d4d4d" d="M 946.5,802.5 C 942.475,811.607 938.475,820.607 934.5,829.5C 936.068,824.282 937.568,818.949 939,813.5C 941.051,809.354 943.551,805.687 946.5,802.5 Z"/></g>
<g><path style="opacity:1" fill="#dbdbdb" d="M 2069.5,816.5 C 2073.27,819.087 2076.93,821.92 2080.5,825C 2086.79,828.68 2093.13,831.847 2099.5,834.5C 2088.56,833.785 2078.9,829.118 2070.5,820.5C 2069.57,819.311 2069.24,817.978 2069.5,816.5 Z"/></g>
<g><path style="opacity:1" fill="#2b2b2b" d="M 1354.5,821.5 C 1354.08,826.402 1352.91,831.069 1351,835.5C 1350.5,839.486 1350.33,843.486 1350.5,847.5C 1349.69,846.003 1349.03,844.336 1348.5,842.5C 1349.95,840.356 1349.62,838.523 1347.5,837C 1349.28,834.185 1350.28,831.019 1350.5,827.5C 1351.38,825.023 1352.72,823.023 1354.5,821.5 Z"/></g>
<g><path style="opacity:1" fill="#464646" d="M 934.5,829.5 C 934.66,831.199 934.494,832.866 934,834.5C 931.854,839.126 930.02,843.792 928.5,848.5C 928.513,843.544 929.846,839.044 932.5,835C 931.073,832.36 931.74,830.527 934.5,829.5 Z"/></g>
<g><path style="opacity:1" fill="#393939" d="M 1972.5,833.5 C 1983.5,833.5 1994.5,833.5 2005.5,833.5C 1994.5,836.167 1983.5,836.167 1972.5,833.5 Z"/></g>
<g><path style="opacity:1" fill="#4c4c4c" d="M 1152.5,829.5 C 1149.55,837.535 1148.22,845.868 1148.5,854.5C 1147.17,846.887 1147.67,839.22 1150,831.5C 1150.42,830.244 1151.25,829.577 1152.5,829.5 Z"/></g>
<g><path style="opacity:1" fill="#3b3b3b" d="M 2134.5,840.5 C 2140.42,840.216 2146.08,840.883 2151.5,842.5C 2145.64,842.283 2139.97,841.617 2134.5,840.5 Z"/></g>
<g><path style="opacity:1" fill="#595959" d="M 2318.5,842.5 C 2310.02,843.725 2301.36,844.392 2292.5,844.5C 2300.94,842.863 2309.61,842.197 2318.5,842.5 Z"/></g>
<g><path style="opacity:1" fill="#999999" d="M 2730.5,844.5 C 2728.42,846.246 2726.08,847.579 2723.5,848.5C 2725.05,845.888 2727.39,844.555 2730.5,844.5 Z"/></g>
<g><path style="opacity:1" fill="#808080" d="M 3180.5,850.5 C 3186.08,851.111 3191.75,851.111 3197.5,850.5C 3191.79,852.688 3186.12,852.688 3180.5,850.5 Z"/></g>
<g><path style="opacity:1" fill="#787878" d="M 3111.5,855.5 C 3109.79,856.738 3107.79,857.405 3105.5,857.5C 3107.1,855.926 3109.1,855.259 3111.5,855.5 Z"/></g>
<g><path style="opacity:1" fill="#606060" d="M 2708.5,855.5 C 2706.08,858.711 2702.75,860.378 2698.5,860.5C 2701.77,858.864 2705.11,857.197 2708.5,855.5 Z"/></g>
<g><path style="opacity:1" fill="#434343" d="M 3402.5,861.5 C 3405.63,862.473 3408.63,863.807 3411.5,865.5C 3412.3,865.957 3412.63,866.624 3412.5,867.5C 3408.58,866.421 3405.24,864.421 3402.5,861.5 Z"/></g>
<g><path style="opacity:1" fill="#8d8d8d" d="M 2680.5,869.5 C 2677.61,870.98 2674.61,872.313 2671.5,873.5C 2673.77,870.829 2676.77,869.495 2680.5,869.5 Z"/></g>
<g><path style="opacity:1" fill="#888888" d="M 499.5,881.5 C 497.343,882.407 495.01,883.073 492.5,883.5C 492.611,882.883 492.944,882.383 493.5,882C 495.473,881.505 497.473,881.338 499.5,881.5 Z"/></g>
<g><path style="opacity:1" fill="#868686" d="M 485.5,884.5 C 482.829,886.118 479.829,886.785 476.5,886.5C 479.273,885.343 482.273,884.676 485.5,884.5 Z"/></g>
<g><path style="opacity:1" fill="#777777" d="M 3645.5,885.5 C 3647.03,885.427 3648.03,886.094 3648.5,887.5C 3646.97,887.573 3645.97,886.906 3645.5,885.5 Z"/></g>
<g><path style="opacity:1" fill="#5b5b5b" d="M 3799.5,890.5 C 3803.04,890.753 3806.37,891.419 3809.5,892.5C 3805.84,892.841 3802.51,892.175 3799.5,890.5 Z"/></g>
<g><path style="opacity:1" fill="#a4a4a4" d="M 760.5,883.5 C 759.932,892.823 759.599,902.156 759.5,911.5C 758.835,908.183 758.501,904.683 758.5,901C 758.39,894.933 759.057,889.1 760.5,883.5 Z"/></g>
<g><path style="opacity:1" fill="#818181" d="M 351.5,911.5 C 351.389,912.117 351.056,912.617 350.5,913C 347.456,913.363 344.456,913.863 341.5,914.5C 341.611,913.883 341.944,913.383 342.5,913C 345.478,912.304 348.478,911.804 351.5,911.5 Z"/></g>
<g><path style="opacity:1" fill="#424242" d="M 2544.5,916.5 C 2543.6,921.534 2541.94,926.201 2539.5,930.5C 2540.07,925.38 2541.73,920.713 2544.5,916.5 Z"/></g>
<g><path style="opacity:1" fill="#575757" d="M 282.5,924.5 C 279.727,925.657 276.727,926.324 273.5,926.5C 276.171,924.882 279.171,924.215 282.5,924.5 Z"/></g>
<g><path style="opacity:1" fill="#7b7b7b" d="M 2532.5,939.5 C 2530.29,941.312 2527.95,941.645 2525.5,940.5C 2527.81,940.007 2530.14,939.674 2532.5,939.5 Z"/></g>
<g><path style="opacity:1" fill="#6e6e6e" d="M 176.5,943.5 C 172.409,944.895 168.076,945.562 163.5,945.5C 167.591,944.105 171.924,943.438 176.5,943.5 Z"/></g>
<g><path style="opacity:1" fill="#a6a6a6" d="M 126.5,947.5 C 131.787,948.342 137.12,948.676 142.5,948.5C 138.019,949.648 133.352,949.815 128.5,949C 127.584,948.722 126.918,948.222 126.5,947.5 Z"/></g>
<g><path style="opacity:1" fill="#5b5b5b" d="M 3306.5,950.5 C 3305.13,954.694 3303.46,958.694 3301.5,962.5C 3302.02,958.778 3302.85,955.112 3304,951.5C 3304.67,950.748 3305.5,950.414 3306.5,950.5 Z"/></g>
<g><path style="opacity:1" fill="#303030" d="M 956.5,958.5 C 955.37,967.504 953.37,976.171 950.5,984.5C 950.38,980.958 950.714,977.458 951.5,974C 953.239,968.736 954.906,963.569 956.5,958.5 Z"/></g>
<g><path style="opacity:1" fill="#fdfdfd" d="M 3235.5,1042.5 C 3219.12,1096.25 3193.62,1146.25 3159,1192.5C 3139.12,1215.5 3115.95,1234.34 3089.5,1249C 3083,1252 3076.5,1254.84 3070,1257.5C 3069.46,1251.06 3070.13,1244.73 3072,1238.5C 3091.61,1184.23 3122.45,1137.56 3164.5,1098.5C 3187.64,1079.02 3211.3,1060.35 3235.5,1042.5 Z"/></g>
<g><path style="opacity:1" fill="#474747" d="M 941.5,1042.5 C 941.473,1049.19 941.139,1055.85 940.5,1062.5C 939.281,1055.78 939.614,1049.12 941.5,1042.5 Z"/></g>
<g><path style="opacity:1" fill="#616161" d="M 957.5,1093.5 C 960.106,1094.85 960.106,1096.35 957.5,1098C 954.633,1098.8 951.966,1098.63 949.5,1097.5C 951.527,1097.66 953.527,1097.5 955.5,1097C 956.085,1095.7 956.751,1094.53 957.5,1093.5 Z"/></g>
<g><path style="opacity:1" fill="#050505" d="M 1361.5,1127.5 C 1377.15,1126.59 1391.48,1130.43 1404.5,1139C 1407.37,1141.54 1409.87,1144.37 1412,1147.5C 1411.23,1150.79 1409.06,1153.12 1405.5,1154.5C 1393.12,1140.2 1377.45,1134.7 1358.5,1138C 1347.99,1139.06 1341.32,1144.56 1338.5,1154.5C 1339.14,1160.64 1342.47,1164.47 1348.5,1166C 1364.76,1169.32 1381.1,1172.32 1397.5,1175C 1419.56,1180.27 1425.39,1192.77 1415,1212.5C 1408.16,1219.01 1399.99,1222.84 1390.5,1224C 1369.84,1227.48 1350.84,1223.48 1333.5,1212C 1328.16,1207.83 1324.16,1202.67 1321.5,1196.5C 1324.17,1194.83 1326.83,1193.17 1329.5,1191.5C 1337.61,1205.07 1349.61,1212.9 1365.5,1215C 1379.22,1217.18 1392.22,1215.18 1404.5,1209C 1412.44,1201.83 1412.44,1194.83 1404.5,1188C 1400.47,1185.55 1396.14,1183.88 1391.5,1183C 1376.43,1180.74 1361.43,1178.07 1346.5,1175C 1328.64,1168.75 1324.14,1157.25 1333,1140.5C 1341.15,1133.01 1350.65,1128.67 1361.5,1127.5 Z"/></g>
<g><path style="opacity:1" fill="#050505" d="M 1594.5,1127.5 C 1616.96,1125.15 1635.79,1132.15 1651,1148.5C 1653.09,1151.67 1654.92,1155.01 1656.5,1158.5C 1653.72,1159.97 1650.89,1161.31 1648,1162.5C 1642.52,1150.35 1633.35,1142.52 1620.5,1139C 1604.38,1135.45 1589.05,1137.45 1574.5,1145C 1561.09,1155.22 1555.92,1168.72 1559,1185.5C 1565.12,1203.27 1577.62,1213.44 1596.5,1216C 1617.13,1219.89 1634.97,1214.72 1650,1200.5C 1652.09,1197.33 1653.92,1193.99 1655.5,1190.5C 1659.16,1189.27 1662.5,1189.94 1665.5,1192.5C 1659.99,1205.5 1650.66,1214.67 1637.5,1220C 1613.77,1228.48 1590.77,1226.81 1568.5,1215C 1550.42,1201.44 1544.26,1183.61 1550,1161.5C 1555.57,1146.27 1566.07,1136.1 1581.5,1131C 1586.11,1130.39 1590.44,1129.22 1594.5,1127.5 Z"/></g>
<g><path style="opacity:1" fill="#050505" d="M 2418.5,1127.5 C 2434.09,1126.81 2448.42,1130.65 2461.5,1139C 2464.37,1141.54 2466.87,1144.37 2469,1147.5C 2468.23,1150.79 2466.06,1153.12 2462.5,1154.5C 2445.96,1136.63 2426.29,1132.46 2403.5,1142C 2392.26,1151.19 2392.93,1159.19 2405.5,1166C 2421.76,1169.32 2438.1,1172.32 2454.5,1175C 2476.56,1180.27 2482.39,1192.77 2472,1212.5C 2465.16,1219.01 2456.99,1222.84 2447.5,1224C 2426.86,1227.48 2407.86,1223.48 2390.5,1212C 2385.16,1207.83 2381.16,1202.67 2378.5,1196.5C 2381.17,1194.83 2383.83,1193.17 2386.5,1191.5C 2394.61,1205.07 2406.61,1212.9 2422.5,1215C 2436.22,1217.18 2449.22,1215.18 2461.5,1209C 2469.44,1201.83 2469.44,1194.83 2461.5,1188C 2457.47,1185.55 2453.14,1183.88 2448.5,1183C 2433.47,1180.44 2418.47,1177.77 2403.5,1175C 2385.64,1168.75 2381.14,1157.25 2390,1140.5C 2398.15,1133.01 2407.65,1128.67 2418.5,1127.5 Z"/></g>
<g><path style="opacity:1" fill="#060606" d="M 2632.5,1172.5 C 2632.5,1188.83 2632.5,1205.17 2632.5,1221.5C 2629.83,1221.5 2627.17,1221.5 2624.5,1221.5C 2624.81,1218.61 2624.47,1215.95 2623.5,1213.5C 2623.82,1209.77 2623.49,1206.11 2622.5,1202.5C 2609.02,1218.15 2591.86,1225.82 2571,1225.5C 2548.82,1225.79 2530.82,1217.46 2517,1200.5C 2504.61,1175.58 2509.44,1154.75 2531.5,1138C 2552.33,1125.86 2574,1124.2 2596.5,1133C 2604.8,1136.31 2611.63,1141.48 2617,1148.5C 2618.41,1150.65 2619.24,1152.98 2619.5,1155.5C 2616.69,1155.55 2614.02,1156.21 2611.5,1157.5C 2605.14,1147.67 2596.14,1141.5 2584.5,1139C 2566.98,1134.89 2550.65,1137.56 2535.5,1147C 2518.91,1161.53 2516.08,1178.36 2527,1197.5C 2539.07,1211.12 2554.24,1217.45 2572.5,1216.5C 2590.7,1217.27 2605.86,1210.94 2618,1197.5C 2621.27,1192.64 2623.1,1187.31 2623.5,1181.5C 2598.5,1181.5 2573.5,1181.5 2548.5,1181.5C 2548.5,1178.5 2548.5,1175.5 2548.5,1172.5C 2576.5,1172.5 2604.5,1172.5 2632.5,1172.5 Z"/></g>
<g><path style="opacity:1" fill="#000000" d="M 1474.5,1220.5 C 1471.17,1220.5 1467.83,1220.5 1464.5,1220.5C 1464.83,1193.33 1464.5,1166.33 1463.5,1139.5C 1449.17,1139.5 1434.83,1139.5 1420.5,1139.5C 1420.5,1136.17 1420.5,1132.83 1420.5,1129.5C 1452.83,1129.5 1485.17,1129.5 1517.5,1129.5C 1517.5,1132.83 1517.5,1136.17 1517.5,1139.5C 1503.17,1139.5 1488.83,1139.5 1474.5,1139.5C 1474.5,1166.5 1474.5,1193.5 1474.5,1220.5 Z"/></g>
<g><path style="opacity:1" fill="#020202" d="M 1711.5,1169.5 C 1735.33,1170.5 1759.33,1170.83 1783.5,1170.5C 1783.5,1173.17 1783.5,1175.83 1783.5,1178.5C 1759.5,1178.5 1735.5,1178.5 1711.5,1178.5C 1711.5,1189.83 1711.5,1201.17 1711.5,1212.5C 1737.83,1212.5 1764.17,1212.5 1790.5,1212.5C 1790.5,1215.5 1790.5,1218.5 1790.5,1221.5C 1760.83,1221.5 1731.17,1221.5 1701.5,1221.5C 1701.5,1190.83 1701.5,1160.17 1701.5,1129.5C 1730.83,1129.5 1760.17,1129.5 1789.5,1129.5C 1789.5,1132.83 1789.5,1136.17 1789.5,1139.5C 1763.5,1139.5 1737.5,1139.5 1711.5,1139.5C 1711.5,1149.5 1711.5,1159.5 1711.5,1169.5 Z"/></g>
<g><path style="opacity:1" fill="#020202" d="M 2034.5,1169.5 C 2058.33,1170.5 2082.33,1170.83 2106.5,1170.5C 2106.5,1173.17 2106.5,1175.83 2106.5,1178.5C 2082.5,1178.5 2058.5,1178.5 2034.5,1178.5C 2034.5,1189.83 2034.5,1201.17 2034.5,1212.5C 2060.83,1212.5 2087.17,1212.5 2113.5,1212.5C 2113.5,1215.5 2113.5,1218.5 2113.5,1221.5C 2083.83,1221.5 2054.17,1221.5 2024.5,1221.5C 2024.5,1190.83 2024.5,1160.17 2024.5,1129.5C 2053.83,1129.5 2083.17,1129.5 2112.5,1129.5C 2112.5,1132.83 2112.5,1136.17 2112.5,1139.5C 2086.5,1139.5 2060.5,1139.5 2034.5,1139.5C 2034.5,1149.5 2034.5,1159.5 2034.5,1169.5 Z"/></g>
<g><path style="opacity:1" fill="#020202" d="M 2164.5,1129.5 C 2182.5,1129.33 2200.5,1129.5 2218.5,1130C 2256.35,1130.18 2273.52,1149.01 2270,1186.5C 2265.1,1206.06 2252.6,1217.23 2232.5,1220C 2209.86,1221.33 2187.19,1221.83 2164.5,1221.5C 2164.5,1190.83 2164.5,1160.17 2164.5,1129.5 Z"/></g>
<g><path style="opacity:1" fill="#020202" d="M 2293.5,1169.5 C 2317.33,1170.5 2341.33,1170.83 2365.5,1170.5C 2365.5,1173.17 2365.5,1175.83 2365.5,1178.5C 2341.5,1178.5 2317.5,1178.5 2293.5,1178.5C 2293.5,1189.83 2293.5,1201.17 2293.5,1212.5C 2319.83,1212.5 2346.17,1212.5 2372.5,1212.5C 2372.5,1215.5 2372.5,1218.5 2372.5,1221.5C 2342.83,1221.5 2313.17,1221.5 2283.5,1221.5C 2283.5,1190.83 2283.5,1160.17 2283.5,1129.5C 2312.83,1129.5 2342.17,1129.5 2371.5,1129.5C 2371.5,1132.83 2371.5,1136.17 2371.5,1139.5C 2345.5,1139.5 2319.5,1139.5 2293.5,1139.5C 2293.5,1149.5 2293.5,1159.5 2293.5,1169.5 Z"/></g>
<g><path style="opacity:1" fill="#020202" d="M 2766.5,1169.5 C 2790.33,1170.5 2814.33,1170.83 2838.5,1170.5C 2838.5,1173.17 2838.5,1175.83 2838.5,1178.5C 2814.5,1178.5 2790.5,1178.5 2766.5,1178.5C 2766.5,1189.83 2766.5,1201.17 2766.5,1212.5C 2792.83,1212.5 2819.17,1212.5 2845.5,1212.5C 2845.5,1215.5 2845.5,1218.5 2845.5,1221.5C 2815.83,1221.5 2786.17,1221.5 2756.5,1221.5C 2756.5,1190.83 2756.5,1160.17 2756.5,1129.5C 2785.83,1129.5 2815.17,1129.5 2844.5,1129.5C 2844.5,1132.83 2844.5,1136.17 2844.5,1139.5C 2818.5,1139.5 2792.5,1139.5 2766.5,1139.5C 2766.5,1149.5 2766.5,1159.5 2766.5,1169.5 Z"/></g>
<g><path style="opacity:1" fill="#030303" d="M 1034.5,1130.5 C 1059.19,1130.12 1083.86,1130.62 1108.5,1132C 1125.51,1136.17 1133.01,1147.01 1131,1164.5C 1127.36,1179.77 1117.53,1187.61 1101.5,1188C 1082.5,1188.5 1063.5,1188.67 1044.5,1188.5C 1044.5,1199.5 1044.5,1210.5 1044.5,1221.5C 1041.17,1221.5 1037.83,1221.5 1034.5,1221.5C 1034.5,1191.17 1034.5,1160.83 1034.5,1130.5 Z"/></g>
<g><path style="opacity:1" fill="#040404" d="M 1140.5,1130.5 C 1143.83,1130.5 1147.17,1130.5 1150.5,1130.5C 1150.5,1157.83 1150.5,1185.17 1150.5,1212.5C 1170.5,1212.5 1190.5,1212.5 1210.5,1212.5C 1210.5,1215.5 1210.5,1218.5 1210.5,1221.5C 1187.17,1221.5 1163.83,1221.5 1140.5,1221.5C 1140.5,1191.17 1140.5,1160.83 1140.5,1130.5 Z"/></g>
<g><path style="opacity:1" fill="#040404" d="M 1260.5,1130.5 C 1265.1,1130.2 1269.6,1130.53 1274,1131.5C 1289.83,1161.17 1305.67,1190.83 1321.5,1220.5C 1317.83,1221.83 1314.17,1221.83 1310.5,1220.5C 1306.83,1213.83 1303.17,1207.17 1299.5,1200.5C 1278.17,1199.33 1256.84,1199.17 1235.5,1200C 1231.5,1207 1227.5,1214 1223.5,1221C 1219.83,1221.67 1216.17,1221.67 1212.5,1221C 1228.91,1191.02 1244.91,1160.85 1260.5,1130.5 Z"/></g>
<g><path style="opacity:1" fill="#000000" d="M 1525.5,1130.5 C 1528.83,1130.5 1532.17,1130.5 1535.5,1130.5C 1535.5,1160.83 1535.5,1191.17 1535.5,1221.5C 1532.17,1221.5 1528.83,1221.5 1525.5,1221.5C 1525.5,1191.17 1525.5,1160.83 1525.5,1130.5 Z"/></g>
<g><path style="opacity:1" fill="#000000" d="M 1677.5,1130.5 C 1680.83,1130.5 1684.17,1130.5 1687.5,1130.5C 1687.5,1160.83 1687.5,1191.17 1687.5,1221.5C 1684.17,1221.5 1680.83,1221.5 1677.5,1221.5C 1677.5,1191.17 1677.5,1160.83 1677.5,1130.5 Z"/></g>
<g><path style="opacity:1" fill="#020202" d="M 1886.5,1210.5 C 1886.56,1211.04 1886.89,1211.38 1887.5,1211.5C 1888.5,1184.51 1888.83,1157.51 1888.5,1130.5C 1891.83,1130.5 1895.17,1130.5 1898.5,1130.5C 1898.5,1160.83 1898.5,1191.17 1898.5,1221.5C 1893.82,1221.67 1889.15,1221.5 1884.5,1221C 1859.88,1194.93 1835.38,1168.76 1811,1142.5C 1810.5,1168.83 1810.33,1195.16 1810.5,1221.5C 1807.17,1221.5 1803.83,1221.5 1800.5,1221.5C 1800.5,1191.17 1800.5,1160.83 1800.5,1130.5C 1805.18,1130.33 1809.85,1130.5 1814.5,1131C 1838.34,1157.67 1862.34,1184.17 1886.5,1210.5 Z"/></g>
<g><path style="opacity:1" fill="#606060" d="M 1888.5,1130.5 C 1888.83,1157.51 1888.5,1184.51 1887.5,1211.5C 1886.89,1211.38 1886.56,1211.04 1886.5,1210.5C 1887.17,1183.83 1887.83,1157.17 1888.5,1130.5 Z"/></g>
<g><path style="opacity:1" fill="#020202" d="M 1998.5,1210.5 C 1998.56,1211.04 1998.89,1211.38 1999.5,1211.5C 2000.5,1184.51 2000.83,1157.51 2000.5,1130.5C 2003.83,1130.5 2007.17,1130.5 2010.5,1130.5C 2010.5,1160.83 2010.5,1191.17 2010.5,1221.5C 2005.82,1221.67 2001.15,1221.5 1996.5,1221C 1971.88,1194.93 1947.38,1168.76 1923,1142.5C 1922.5,1168.83 1922.33,1195.16 1922.5,1221.5C 1919.17,1221.5 1915.83,1221.5 1912.5,1221.5C 1912.5,1191.17 1912.5,1160.83 1912.5,1130.5C 1917.18,1130.33 1921.85,1130.5 1926.5,1131C 1950.34,1157.67 1974.34,1184.17 1998.5,1210.5 Z"/></g>
<g><path style="opacity:1" fill="#606060" d="M 2000.5,1130.5 C 2000.83,1157.51 2000.5,1184.51 1999.5,1211.5C 1998.89,1211.38 1998.56,1211.04 1998.5,1210.5C 1999.17,1183.83 1999.83,1157.17 2000.5,1130.5 Z"/></g>
<g><path style="opacity:1" fill="#000000" d="M 2487.5,1130.5 C 2490.83,1130.5 2494.17,1130.5 2497.5,1130.5C 2497.5,1160.83 2497.5,1191.17 2497.5,1221.5C 2494.17,1221.5 2490.83,1221.5 2487.5,1221.5C 2487.5,1191.17 2487.5,1160.83 2487.5,1130.5 Z"/></g>
<g><path style="opacity:1" fill="#020202" d="M 2730.5,1210.5 C 2730.56,1211.04 2730.89,1211.38 2731.5,1211.5C 2732.5,1184.51 2732.83,1157.51 2732.5,1130.5C 2735.83,1130.5 2739.17,1130.5 2742.5,1130.5C 2742.5,1160.83 2742.5,1191.17 2742.5,1221.5C 2737.82,1221.67 2733.15,1221.5 2728.5,1221C 2704.27,1195.6 2680.27,1170.1 2656.5,1144.5C 2656.22,1143.71 2655.72,1143.04 2655,1142.5C 2654.5,1168.83 2654.33,1195.16 2654.5,1221.5C 2651.17,1221.5 2647.83,1221.5 2644.5,1221.5C 2644.5,1191.17 2644.5,1160.83 2644.5,1130.5C 2649.18,1130.33 2653.85,1130.5 2658.5,1131C 2682.34,1157.67 2706.34,1184.17 2730.5,1210.5 Z"/></g>
<g><path style="opacity:1" fill="#606060" d="M 2732.5,1130.5 C 2732.83,1157.51 2732.5,1184.51 2731.5,1211.5C 2730.89,1211.38 2730.56,1211.04 2730.5,1210.5C 2731.17,1183.83 2731.83,1157.17 2732.5,1130.5 Z"/></g>
<g><path style="opacity:1" fill="#030303" d="M 2855.5,1130.5 C 2880.86,1130.1 2906.19,1130.6 2931.5,1132C 2949.34,1135.86 2956.51,1146.69 2953,1164.5C 2950.1,1171.73 2944.93,1176.56 2937.5,1179C 2933.82,1179.79 2930.15,1180.62 2926.5,1181.5C 2928.19,1183.03 2930.03,1184.36 2932,1185.5C 2936.45,1192.74 2940.12,1200.41 2943,1208.5C 2947.11,1217.05 2952.28,1217.71 2958.5,1210.5C 2960.04,1212.39 2961.71,1214.22 2963.5,1216C 2951.84,1228.43 2942.01,1227.27 2934,1212.5C 2930.75,1203.49 2926.58,1194.99 2921.5,1187C 2919.83,1186 2918.17,1185 2916.5,1184C 2899.5,1183.5 2882.5,1183.33 2865.5,1183.5C 2865.5,1196.17 2865.5,1208.83 2865.5,1221.5C 2862.17,1221.5 2858.83,1221.5 2855.5,1221.5C 2855.5,1191.17 2855.5,1160.83 2855.5,1130.5 Z"/></g>
<g><path style="opacity:1" fill="#9e9e9e" d="M 1463.5,1139.5 C 1464.5,1166.33 1464.83,1193.33 1464.5,1220.5C 1467.83,1220.5 1471.17,1220.5 1474.5,1220.5C 1471.04,1221.48 1467.37,1221.81 1463.5,1221.5C 1463.5,1194.17 1463.5,1166.83 1463.5,1139.5 Z"/></g>
<g><path style="opacity:1" fill="#fdfdfd" d="M 2174.5,1139.5 C 2192.84,1139.33 2211.17,1139.5 2229.5,1140C 2250.28,1143.11 2260.61,1155.11 2260.5,1176C 2260.15,1196.03 2250.15,1208.03 2230.5,1212C 2211.84,1212.5 2193.17,1212.67 2174.5,1212.5C 2174.5,1188.17 2174.5,1163.83 2174.5,1139.5 Z"/></g>
<g><path style="opacity:1" fill="#fdfdfd" d="M 1044.5,1140.5 C 1065.89,1140.05 1087.22,1140.55 1108.5,1142C 1121.47,1148.58 1124.64,1158.41 1118,1171.5C 1114.55,1175.15 1110.38,1177.65 1105.5,1179C 1085.17,1179.5 1064.84,1179.67 1044.5,1179.5C 1044.5,1166.5 1044.5,1153.5 1044.5,1140.5 Z"/></g>
<g><path style="opacity:1" fill="#fdfdfd" d="M 2865.5,1140.5 C 2886.5,1140.33 2907.5,1140.5 2928.5,1141C 2942.04,1144.24 2946.54,1152.41 2942,1165.5C 2938.91,1169.93 2934.74,1172.76 2929.5,1174C 2908.17,1174.5 2886.84,1174.67 2865.5,1174.5C 2865.5,1163.17 2865.5,1151.83 2865.5,1140.5 Z"/></g>
<g><path style="opacity:1" fill="#fbfbfb" d="M 1266.5,1139.5 C 1276.23,1155.29 1285.23,1171.62 1293.5,1188.5C 1275.83,1189.83 1258.17,1189.83 1240.5,1188.5C 1249.45,1172.27 1258.11,1155.94 1266.5,1139.5 Z"/></g>
<g><path style="opacity:1" fill="#d9d9d9" d="M 2656.5,1144.5 C 2655.83,1170.17 2655.17,1195.83 2654.5,1221.5C 2654.33,1195.16 2654.5,1168.83 2655,1142.5C 2655.72,1143.04 2656.22,1143.71 2656.5,1144.5 Z"/></g>
<g><path style="opacity:1" fill="#444444" d="M 1711.5,1169.5 C 1735.83,1169.5 1760.17,1169.5 1784.5,1169.5C 1784.81,1172.71 1784.48,1175.71 1783.5,1178.5C 1783.5,1175.83 1783.5,1173.17 1783.5,1170.5C 1759.33,1170.83 1735.33,1170.5 1711.5,1169.5 Z"/></g>
<g><path style="opacity:1" fill="#444444" d="M 2034.5,1169.5 C 2058.83,1169.5 2083.17,1169.5 2107.5,1169.5C 2107.81,1172.71 2107.48,1175.71 2106.5,1178.5C 2106.5,1175.83 2106.5,1173.17 2106.5,1170.5C 2082.33,1170.83 2058.33,1170.5 2034.5,1169.5 Z"/></g>
<g><path style="opacity:1" fill="#444444" d="M 2293.5,1169.5 C 2317.83,1169.5 2342.17,1169.5 2366.5,1169.5C 2366.81,1172.71 2366.48,1175.71 2365.5,1178.5C 2365.5,1175.83 2365.5,1173.17 2365.5,1170.5C 2341.33,1170.83 2317.33,1170.5 2293.5,1169.5 Z"/></g>
<g><path style="opacity:1" fill="#444444" d="M 2766.5,1169.5 C 2790.83,1169.5 2815.17,1169.5 2839.5,1169.5C 2839.81,1172.71 2839.48,1175.71 2838.5,1178.5C 2838.5,1175.83 2838.5,1173.17 2838.5,1170.5C 2814.33,1170.83 2790.33,1170.5 2766.5,1169.5 Z"/></g>
<g><path style="opacity:1" fill="#8e8e8e" d="M 2632.5,1172.5 C 2633.5,1188.99 2633.83,1205.66 2633.5,1222.5C 2630.17,1222.5 2626.83,1222.5 2623.5,1222.5C 2623.5,1219.5 2623.5,1216.5 2623.5,1213.5C 2624.47,1215.95 2624.81,1218.61 2624.5,1221.5C 2627.17,1221.5 2629.83,1221.5 2632.5,1221.5C 2632.5,1205.17 2632.5,1188.83 2632.5,1172.5 Z"/></g>
<g><path style="opacity:1" fill="#787878" d="M 3069.5,1278.5 C 3073.48,1279.02 3077.48,1279.35 3081.5,1279.5C 3077.4,1280.82 3073.4,1280.49 3069.5,1278.5 Z"/></g>
</svg>
